{
  "title": "Orange is the new black S04E03 720p WEBRip x264-TheRival",
  "uid": 14963879,
  "size": 966894244,
  "categoryP": "video",
  "categoryS": "hd___tv_shows",
  "magnet": "?xt=urn:btih:a9518c966e89841b69620894f18d92c31c6ab68f&amp;dn=Orange+is+the+new+black+S04E03+720p+WEBRip+x264-TheRival&amp;tr=udp%3A%2F%2Ftracker.leechers-paradise.org%3A6969&amp;tr=udp%3A%2F%2Fzer0day.ch%3A1337&amp;tr=udp%3A%2F%2Fopen.demonii.com%3A1337&amp;tr=udp%3A%2F%2Ftracker.coppersurfer.tk%3A6969&amp;tr=udp%3A%2F%2Fexodus.desync.com%3A6969",
  "seeders": 91,
  "leechers": 6,
  "uploader": "TheRival",
  "files": 2,
  "time": 1466170893,
  "description": "Screens: \nhttp://extraimago.com/image/ar6z \nhttp://extraimago.com/image/ar60 \nhttp://extraimago.com/image/ar6J\r\n\r\nVideo\r\nID : 1\r\nFormat : AVC\r\nFormat/Info : Advanced Video Codec\r\nFormat profile :   \r\nFormat settings, CABAC : Yes\r\nFormat settings, ReFrames : 2 frames\r\nFormat settings, GOP : M=1, N=24\r\nCodec ID : avc1\r\nCodec ID/Info : Advanced Video Coding\r\nDuration : 56mn 35s\r\nSource duration : 56mn 33s\r\nBit rate mode : Variable\r\nBit rate : 2 051 Kbps\r\nMaximum bit rate : 3 315 Kbps\r\nWidth : 1 280 pixels\r\nHeight : 720 pixels\r\nDisplay aspect ratio : 16:9\r\nFrame rate mode : Constant\r\nFrame rate : 23.976 (23976/1000) fps\r\nColor space : YUV\r\nChroma subsampling : 4:2:0\r\nBit depth : 8 bits\r\nScan type : Progressive\r\nBits/(Pixel*Frame) : 0.093\r\nStream size : 830 MiB (90%)\r\nSource stream size : 869 MiB (94%)\r\nEncoded date : UTC 2016-06-17 11:24:44\r\nTagged date : UTC 2016-06-17 11:32:02\r\nColor primaries : BT.709\r\nTransfer characteristics : BT.709\r\nMatrix coefficients : BT.709\r\n\r\nAudio\r\nID : 2\r\nFormat : AAC\r\nFormat/Info : Advanced Audio Codec\r\nFormat profile : LC\r\nCodec ID : 40\r\nDuration : 56mn 32s\r\nBit rate mode : Variable\r\nBit rate : 128 Kbps\r\nMaximum bit rate : 131 Kbps\r\nChannel(s) : 2 channels\r\nChannel positions : Front: L R\r\nSampling rate : 48.0 KHz\r\nFrame rate : 46.875 fps (1024 spf)\r\nCompression mode : Lossy\r\nStream size : 51.8 MiB (6%)\r\nTitle : Undetermined (aac 2.0)\r\nDefault : Yes\r\nAlternate group : 1",
  "parsed": {
    "xt": "urn:btih:a9518c966e89841b69620894f18d92c31c6ab68f",
    "dn": "Orange is the new black S04E03 720p WEBRip x264-TheRival",
    "tr": [
      "udp://exodus.desync.com:6969",
      "udp://open.demonii.com:1337",
      "udp://tracker.coppersurfer.tk:6969",
      "udp://tracker.leechers-paradise.org:6969",
      "udp://zer0day.ch:1337"
    ],
    "infoHash": "a9518c966e89841b69620894f18d92c31c6ab68f",
    "infoHashBuffer": {
      "type": "Buffer",
      "data": [
        169,
        81,
        140,
        150,
        110,
        137,
        132,
        27,
        105,
        98,
        8,
        148,
        241,
        141,
        146,
        195,
        28,
        106,
        182,
        143
      ]
    },
    "name": "Orange is the new black S04E03 720p WEBRip x264-TheRival",
    "announce": [
      "udp://exodus.desync.com:6969",
      "udp://open.demonii.com:1337",
      "udp://tracker.coppersurfer.tk:6969",
      "udp://tracker.leechers-paradise.org:6969",
      "udp://zer0day.ch:1337"
    ],
    "urlList": []
  },
  "previous": 100,
  "peers": 97,
  "last_updated": "2016-12-27T09:38:58.314Z"
}